<svg aria-hidden="true" style="position: absolute; width: 0; height: 0; overflow: hidden;" version="1.1" xmlns="http://www.w3.org/2000/svg" xmlns:xlink="http://www.w3.org/1999/xlink">
<defs>
<symbol id="burger" viewBox="0 0 32 32">
<path   d="M12.25-0.25c-1.593 0.615-3.26 1.199-5 1.75-5.348 2.613-7.598 6.863-6.75 12.75 1.701 1.511 1.451 2.677-0.75 3.5 0 1.333 0 2.667 0 4 0.602 2.599 1.185 5.265 1.75 8 0.698 0.785 1.448 1.452 2.25 2 8 0 16 0 24 0 0.802-0.548 1.552-1.215 2.25-2 0.378-2.129 0.961-4.129 1.75-6 0-0.333 0-0.667 0-1-0.667-0.333-0.667-0.667 0-1 0-1.333 0-2.667 0-4-0.761-0.466-1.428-1.049-2-1.75 0.983-0.732 1.65-1.649 2-2.75 0-0.333 0-0.667 0-1-0.382-2.226-1.132-4.393-2.25-6.5-2.897-2.999-6.313-4.999-10.25-6-2.333 0-4.667 0-7 0zM14.75 1.25c6.17-0.041 10.92 2.459 14.25 7.5 0.247 0.817 0.33 1.65 0.25 2.5-9 0-18 0-27 0 0.2-2.153 1.033-4.070 2.5-5.75 2.97-2.405 6.303-3.822 10-4.25zM2.25 12.75c9.168-0.083 18.335 0 27.5 0.25-2.148 0.543-4.315 1.127-6.5 1.75-2.5-1.333-5-1.333-7.5 0-2.388-1.319-4.805-1.319-7.25 0-2.24-0.533-4.324-1.199-6.25-2zM3.75 15.25c0.964-0.135 1.798 0.115 2.5 0.75-1 0.333-2 0.333-3 0 0.278-0.191 0.445-0.441 0.5-0.75zM11.25 15.25c3.241 0.81 3.074 1.060-0.5 0.75 0.278-0.191 0.445-0.441 0.5-0.75zM18.75 15.25c0.904-0.004 1.738 0.246 2.5 0.75-1.167 0.333-2.333 0.333-3.5 0 0.458-0.139 0.791-0.389 1-0.75zM26.25 15.25c0.802-0.094 1.468 0.156 2 0.75-1 0.333-2 0.333-3 0 0.458-0.139 0.791-0.389 1-0.75zM1.75 18.25c1.014-0.081 2.014 0.002 3 0.25 1 1 2 2 3 3-2.063 0.427-4.063 0.26-6-0.5-0.518-0.888-0.518-1.804 0-2.75zM7.75 18.75c0.443-0.638 0.943-0.638 1.5 0-0.462 0.531-0.962 0.531-1.5 0zM12.25 18.75c2.408-0.575 4.908-0.658 7.5-0.25-1.25 1.25-2.5 2.5-3.75 3.75-1.185-1.269-2.435-2.436-3.75-3.5zM22.75 18.25c2.357-0.163 4.69 0.003 7 0.5 0.807 1.329 0.474 2.245-1 2.75-3 0.333-6 0.333-9 0 1.103-1.018 2.103-2.102 3-3.25zM10.25 20.25c0.848 0.093 1.515 0.509 2 1.25-1 0.333-2 0.333-3 0 0.44-0.354 0.774-0.771 1-1.25zM16.75 24.75c-0.118 0.298-0.368 0.465-0.75 0.5-2.5-1.333-5-1.333-7.5 0-2.024-0.699-4.107-1.199-6.25-1.5 3.99-0.582 7.99-0.666 12-0.25 0.705 0.686 1.538 1.102 2.5 1.25zM16.75 24.75c0.226-0.479 0.56-0.896 1-1.25 4-0.333 8-0.333 12 0-2.187 0.494-4.353 1.077-6.5 1.75-2.071-1.112-4.238-1.279-6.5-0.5zM2.75 25.75c2.096-0.159 4.013 0.341 5.75 1.5 1.304-0.387 2.554-0.887 3.75-1.5 1.196 0.613 2.446 1.113 3.75 1.5 1.158-0.498 2.325-0.998 3.5-1.5 1.23 0.549 2.48 1.049 3.75 1.5 1.27-0.451 2.52-0.951 3.75-1.5 1.912 0.667 2.245 1.833 1 3.5-0.534 0.345-1.117 0.595-1.75 0.75-7 0.333-14 0.333-21 0-2.032-0.64-2.865-2.057-2.5-4.25z"></path>
<path   d="M14.75 2.25c0.5 0 1 0 1.5 0 0 0.5 0 1 0 1.5-0.5 0-1 0-1.5 0 0-0.5 0-1 0-1.5z"></path>
<path   d="M17.75 2.25c3.201 0.434 6.034 1.684 8.5 3.75 1.141 1.199 1.808 2.615 2 4.25-0.526 0.075-1.026-0.009-1.5-0.25-2.159-3.247-5.159-5.247-9-6-0.592-0.573-0.592-1.156 0-1.75z"></path>
<path   d="M8.75 5.25c0.5 0 1 0 1.5 0 0 0.5 0 1 0 1.5-0.5 0-1 0-1.5 0 0-0.5 0-1 0-1.5z"></path>
<path   d="M13.75 5.25c0.5 0 1 0 1.5 0 0 0.5 0 1 0 1.5-0.5 0-1 0-1.5 0 0-0.5 0-1 0-1.5z"></path>
<path   d="M5.75 7.75c0.5 0 1 0 1.5 0-0.373 1.905-0.873 1.905-1.5 0z"></path>
<path  d="M12.25 7.75c1.729 0.084 1.895 0.584 0.5 1.5-0.443-0.412-0.61-0.912-0.5-1.5z"></path>
<path   d="M16.25 8.25c0.739-0.131 1.406 0.036 2 0.5-0.982 1.347-1.648 1.18-2-0.5z"></path>
</symbol>
<symbol id="noodles" viewBox="0 0 32 32">
<path d="M27.75-0.25c-1.075 0.585-2.242 1.085-3.5 1.5-0.619 0.754-0.453 1.337 0.5 1.75-0.686 0.201-1.353 0.451-2 0.75-0.503-0.219-0.503-0.552 0-1-0.787-0.565-1.621-0.649-2.5-0.25-3.617 1.183-7.284 2.183-11 3-0.417 0.417-0.833 0.833-1.25 1.25-0.525-0.509-1.108-0.592-1.75-0.25-2.341 0.751-4.507 1.835-6.5 3.25 0 0.333 0 0.667 0 1 0.419 0.571 0.753 1.237 1 2 0.594 0.464 1.261 0.631 2 0.5 0.258 2.343-0.742 3.51-3 3.5 0 1.333 0 2.667 0 4 1.204 3.457 3.287 6.291 6.25 8.5 0.167 1.001 0.584 1.835 1.25 2.5 4.5 0 9 0 13.5 0 2.306-2.585 4.389-5.419 6.25-8.5 0.815-2.094 1.232-4.261 1.25-6.5-4.5 0-9 0-13.5 0 0.231-1.41 0.231-2.743 0-4 0.159-0.574 0.492-0.99 1-1.25 5.381-0.589 10.714-1.339 16-2.25 0-1 0-2 0-3-5.817 0.486-11.567 1.319-17.25 2.5-0.083-0.167-0.167-0.333-0.25-0.5 5.068-1.977 10.235-3.727 15.5-5.25 0.634-1.082 0.634-2.165 0-3.25-0.667 0-1.333 0-2 0zM27.75 7.75c-0.896 0.405-1.896 0.655-3 0.75 1.868 0.305 3.702 0.138 5.5-0.5-0.817-0.247-1.65-0.33-2.5-0.25zM1.25 18.25c8.5 0 17 0 25.5 0-1.572 9.128-6.906 12.461-16 10 0 0.5 0 1 0 1.5 9.635 0.468 9.302 0.468-1 0 0-0.5 0-1 0-1.5-1.014 0.081-2.014-0.002-3-0.25-3.202-2.489-5.036-5.739-5.5-9.75z"></path>
</symbol>
<symbol id="pizza" viewBox="0 0 32 32">
<path d="M11.75-0.25c-2.724 1.157-5.308 2.657-7.75 4.5-1.951 2.239-3.367 4.739-4.25 7.5 0 2.667 0 5.333 0 8 0.937 2.867 2.437 5.45 4.5 7.75 2.401 1.698 4.901 3.114 7.5 4.25 2.667 0 5.333 0 8 0 1.141-0.419 2.307-0.919 3.5-1.5 0.167-0.417 0.333-0.833 0.5-1.25-1.834-4.251-4.001-8.335-6.5-12.25 1.293-0.49 2.627-0.657 4-0.5-0.082 1.178 0.002 2.345 0.25 3.5 1.167 1.333 2.333 1.333 3.5 0-0.46 2.699 0.623 3.866 3.25 3.5 0.407-2.31 0.573-4.643 0.5-7 1 0 2 0 3 0 0-1.5 0-3 0-4.5-1.833-6.167-5.833-10.167-12-12-2.667 0-5.333 0-8 0zM14.75 0.75c2.681 0.083 5.181 0.75 7.5 2-0.167 0.167-0.333 0.333-0.5 0.5-4-2-8-2-12 0-0.667-0.333-0.667-0.667 0-1 1.698-0.609 3.365-1.109 5-1.5zM14.75 3.75c1.113-0.53 2.28-0.446 3.5 0.25-1.48 1.881-0.98 3.048 1.5 3.5-0.939 1.126-1.689 2.376-2.25 3.75-1.167-3.333-2.333-3.333-3.5 0-0.303-0.991-0.803-1.157-1.5-0.5-0.25-0.25-0.5-0.5-0.75-0.75 0.635-0.45 1.135-1.033 1.5-1.75 1.431 0.434 2.514-0.066 3.25-1.5 0.309-1.55-0.274-2.55-1.75-3zM6.75 3.75c0.526-0.075 1.026 0.009 1.5 0.25-3.898 2.708-6.065 6.458-6.5 11.25-0.567-2.069-0.317-4.069 0.75-6 1.142-2.057 2.558-3.89 4.25-5.5zM23.25 4.25c0.375-0.537 0.875-0.62 1.5-0.25 3.798 3 5.548 6.75 5.25 11.25-0.566-2.197-1.232-4.364-2-6.5-1.189-1.94-2.773-3.44-4.75-4.5zM11.75 4.25c-0.12 1.397-0.62 1.647-1.5 0.75 0.372-0.519 0.872-0.769 1.5-0.75zM13.75 4.75c1.798 0.703 1.881 1.536 0.25 2.5-0.417-0.417-0.833-0.833-1.25-1.25 0.44-0.354 0.774-0.771 1-1.25zM22.25 5.75c0.711 0.104 1.378 0.354 2 0.75-0.981 0.422-1.648 0.172-2-0.75zM6.25 7.75c1.249 1.702 2.666 1.869 4.25 0.5 0.187 0.458 0.437 0.875 0.75 1.25-3.552 0.319-4.385 1.986-2.5 5 1.903 0.587 3.319 0.003 4.25-1.75 0.542 0.583 0.958 1.249 1.25 2-2.819 0.582-5.652 0.665-8.5 0.25 1.663-0.807 1.829-1.807 0.5-3-0.719-0.109-1.386-0.359-2-0.75 0.546-1.262 1.213-2.428 2-3.5zM24.75 7.75c2.646 2.166 2.479 2.749-0.5 1.75 0.418-0.506 0.585-1.089 0.5-1.75zM20.75 8.25c0.74 0.956 1.74 1.539 3 1.75-1.792 1.264-1.959 2.764-0.5 4.5 2.295 0.808 3.712 0.058 4.25-2.25 0.167 0.333 0.333 0.667 0.5 1-0.451 2.775-0.784 5.609-1 8.5-0.167-1.333-0.333-2.667-0.5-4-0.345-0.428-0.761-0.762-1.25-1-1.017 0.548-1.684 1.382-2 2.5-0.483-0.948-0.649-1.948-0.5-3 1.373 0.157 2.707-0.010 4-0.5-3.167-0.333-6.333-0.667-9.5-1 0.548-1.817 1.214-1.901 2-0.25 2.083 0.583 2.833-0.167 2.25-2.25-0.693-0.901-1.443-1.234-2.25-1 0.769-0.872 1.269-1.872 1.5-3zM9.25 11.25c0.923-0.139 1.59 0.194 2 1-0.41 0.806-1.077 1.139-2 1 0-0.667 0-1.333 0-2zM24.25 11.25c1.206 0.097 1.706 0.764 1.5 2-0.667 0-1.333 0-2 0-0.034-0.729 0.133-1.396 0.5-2zM16.75 12.25c-0.531 1.797-1.197 1.88-2 0.25 0.647-0.245 1.313-0.328 2-0.25zM3.25 13.75c0.563 0.311 1.063 0.727 1.5 1.25-0.995 0.26-1.495-0.157-1.5-1.25zM1.25 16.25c0.768 2.265 1.684 4.598 2.75 7 1.14 1.702 2.557 3.118 4.25 4.25-0.5 0.333-1 0.333-1.5 0-3.64-2.864-5.474-6.614-5.5-11.25zM3.75 16.25c2.007-0.083 4.007 0.001 6 0.25-0.453 0.85-0.62 1.766-0.5 2.75-0.667 0-1.333 0-2 0 0.049-2.096-0.868-2.763-2.75-2-0.273 2.617-0.69 2.617-1.25 0 0.181-0.342 0.348-0.675 0.5-1zM11.75 16.75c0.767-0.644 1.601-0.644 2.5 0-1.044 1.586-1.96 3.253-2.75 5-0.287-0.996-0.87-1.746-1.75-2.25 2.244 0.025 2.91-0.892 2-2.75zM15.25 17.75c0.919 0.070 1.085 0.403 0.5 1-0.399-0.228-0.565-0.562-0.5-1zM6.25 23.25c-0.903-0.795-1.569-1.795-2-3 0.529-0.203 1.195-0.203 2 0 0 1 0 2 0 3zM13.25 22.25c0.104-0.711 0.354-1.378 0.75-2 0.159 0.78 0.575 1.364 1.25 1.75-0.647 0.245-1.313 0.328-2 0.25zM19.75 27.25c-2.229 0.966-4.562 1.133-7 0.5 0 0.5 0 1 0 1.5 3.099 0.651 6.099 0.317 9-1 0.552 0.566 0.385 0.982-0.5 1.25-4.138 1.713-8.138 1.463-12-0.75 0.167-0.167 0.333-0.333 0.5-0.5 0.618 0.373 1.285 0.54 2 0.5-0.031-1.046-0.531-1.796-1.5-2.25 0.601-0.451 1.017-1.035 1.25-1.75 1.082 2.581 2.749 3.081 5 1.5 0.472-1.424 0.222-2.674-0.75-3.75 0.91-0.49 1.494-1.24 1.75-2.25 0.561 1.374 1.311 2.624 2.25 3.75-2.069-0.102-2.819 0.815-2.25 2.75 0.678 0.44 1.428 0.607 2.25 0.5zM7.75 20.75c0.923-0.139 1.59 0.194 2 1-0.41 0.806-1.077 1.139-2 1 0-0.667 0-1.333 0-2zM13.75 23.75c0.5 0 1 0 1.5 0 0 0.667 0 1.333 0 2-1.727 0.117-2.227-0.55-1.5-2zM7.25 24.25c0.894-0.143 1.727 0.024 2.5 0.5-0.997 1.267-1.83 1.101-2.5-0.5zM19.75 27.25c0.261-1.935 0.761-2.185 1.5-0.75-0.372 0.519-0.872 0.769-1.5 0.75z"></path>
</symbol>
<symbol id="sushi-set" viewBox="0 0 32 32">
<path  d="M0.75-0.25c-0.167 0.5-0.5 0.833-1 1 0 2.667 0 5.333 0 8 1.431 0.786 3.014 1.12 4.75 1 1.785 0.107 3.451-0.226 5-1 0.333-2.667 0.333-5.333 0-8-0.359-0.272-0.609-0.605-0.75-1-2.667 0-5.333 0-8 0zM3.75 2.75c2.994 0.082 3.66 1.332 2 3.75-3.048 0.074-3.715-1.176-2-3.75zM0.75 5.75c1.25 0.005 1.334 0.339 0.25 1-0.232-0.297-0.316-0.631-0.25-1z"></path>
<path  d="M12.25-0.25c-0.484 0.405-0.901 0.905-1.25 1.5-0.333 2.333-0.333 4.667 0 7 0.25 0.583 0.667 1 1.25 1.25 2.5 0.333 5 0.333 7.5 0 0.25-0.25 0.5-0.5 0.75-0.75 0.333-2.667 0.333-5.333 0-8-0.359-0.272-0.609-0.605-0.75-1-2.5 0-5 0-7.5 0zM13.25 0.75c2.206-0.24 4.289 0.094 6.25 1 1.393 6.675-1.024 8.675-7.25 6-0.547-1.804-0.63-3.637-0.25-5.5 0.349-0.595 0.766-1.095 1.25-1.5z"></path>
<path  d="M22.75-0.25c-1.484 1.966-1.15 3.549 1 4.75-1.138 0.437-1.805 1.27-2 2.5 1.367 3.316 3.117 3.566 5.25 0.75 1.18 2.214 2.763 2.547 4.75 1 0-1 0-2 0-3-0.591-0.502-1.258-0.919-2-1.25 0.7-0.205 1.367-0.455 2-0.75 0-1 0-2 0-3-0.5-0.167-0.833-0.5-1-1-1 0-2 0-3 0-0.506 1.861-1.172 1.861-2 0-1 0-2 0-3 0zM24.25 0.75c1.979 0.817 1.979 1.65 0 2.5-1.215-0.769-1.215-1.602 0-2.5zM29.25 0.75c1.979 0.817 1.979 1.65 0 2.5-1.215-0.769-1.215-1.602 0-2.5zM26.75 2.75c0.408 0.822 1.075 1.405 2 1.75-0.917 0.25-1.5 0.833-1.75 1.75-0.607-0.774-1.357-1.358-2.25-1.75 1.205-0.029 1.872-0.612 2-1.75zM24.25 5.75c1.979 0.817 1.979 1.65 0 2.5-1.215-0.769-1.215-1.602 0-2.5zM29.25 5.75c1.979 0.817 1.979 1.65 0 2.5-1.215-0.769-1.215-1.602 0-2.5z"></path>
<path  d="M14.25 1.75c4.659 0.077 5.659 1.994 3 5.75-2.577 0.839-4.077-0.078-4.5-2.75 0.242-1.15 0.742-2.15 1.5-3z"></path>
<path  d="M-0.25 19.75c1.752 1.433 3.336 1.266 4.75-0.5 1.105 1.395 2.522 1.811 4.25 1.25 1.418-1.745 1.252-3.328-0.5-4.75 0.885-0.604 1.385-1.437 1.5-2.5-1.226-2.862-2.976-3.195-5.25-1-1.414-1.766-2.998-1.933-4.75-0.5 0 1 0 2 0 3 1.333 0.667 1.333 1.333 0 2 0 1 0 2 0 3zM1.25 12.25c1.333-0.217 1.916 0.283 1.75 1.5-1.798 0.783-2.382 0.283-1.75-1.5zM6.25 12.25c0.667 0 1.333 0 2 0 0 0.667 0 1.333 0 2-0.667 0-1.333 0-2 0 0-0.667 0-1.333 0-2zM4.25 13.75c0.49 0.633 0.99 1.299 1.5 2-0.516 0.6-0.932 1.267-1.25 2-0.318-0.733-0.734-1.4-1.25-2 0.565-0.561 0.898-1.228 1-2zM1.25 17.25c1.333-0.217 1.916 0.283 1.75 1.5-1.815 0.766-2.398 0.266-1.75-1.5zM6.25 17.25c1.5-0.167 2.167 0.5 2 2-0.667 0-1.333 0-2 0 0-0.667 0-1.333 0-2z"></path>
<path  d="M12.25 10.75c-0.484 0.405-0.901 0.905-1.25 1.5-1.973 7.943 0.944 10.609 8.75 8 0.346-0.263 0.596-0.596 0.75-1 0.333-2.5 0.333-5 0-7.5-0.25-0.25-0.5-0.5-0.75-0.75-2.494-0.25-4.994-0.333-7.5-0.25zM13.25 11.75c5.75-1.334 7.833 0.833 6.25 6.5-0.82 1.212-1.987 1.712-3.5 1.5-1.361 0.045-2.611-0.289-3.75-1-0.547-1.804-0.63-3.637-0.25-5.5 0.349-0.595 0.766-1.095 1.25-1.5zM14.75 14.25c-0.583 0.833-0.583 1.666 0 2.5 0.644-0.899 0.644-1.733 0-2.5zM16.25 14.25c-0.081 1.014 0.002 2.014 0.25 3 1.045-1.136 0.962-2.136-0.25-3z"></path>
<path  d="M31.75 11.75c-0.395-0.141-0.728-0.391-1-0.75-2.667-0.333-5.333-0.333-8 0-0.769 1.464-1.102 3.047-1 4.75-0.102 1.703 0.231 3.286 1 4.75 2.667 0.333 5.333 0.333 8 0 0.272-0.359 0.605-0.609 1-0.75 0-2.667 0-5.333 0-8zM25.75 13.75c2.994 0.082 3.66 1.332 2 3.75-3.048 0.074-3.715-1.176-2-3.75zM22.75 14.25c1.13 0.369 1.213 0.869 0.25 1.5-0.241-0.474-0.325-0.974-0.25-1.5zM22.75 16.75c1.25 0.005 1.334 0.339 0.25 1-0.232-0.297-0.316-0.631-0.25-1z"></path>
<path  d="M14.25 12.75c4.152-0.111 5.319 1.639 3.5 5.25-2.592 1.287-4.259 0.537-5-2.25 0.242-1.15 0.742-2.15 1.5-3zM14.75 14.25c-0.583 0.833-0.583 1.666 0 2.5 0.644-0.899 0.644-1.733 0-2.5zM16.25 14.25c-0.081 1.014 0.002 2.014 0.25 3 1.045-1.136 0.962-2.136-0.25-3z"></path>
<path  d="M8.75 31.75c0.141-0.395 0.391-0.728 0.75-1 0.333-2.5 0.333-5 0-7.5-0.154-0.404-0.404-0.737-0.75-1-2.473-0.557-4.973-0.64-7.5-0.25-0.595 0.349-1.095 0.766-1.5 1.25 0 2.5 0 5 0 7.5 0.5 0.167 0.833 0.5 1 1 2.667 0 5.333 0 8 0zM2.75 22.75c6.014-0.465 7.681 2.035 5 7.5-5.943 2.14-8.193 0.14-6.75-6 0.492-0.657 1.076-1.157 1.75-1.5zM3.75 25.25c-0.055 0.309-0.222 0.559-0.5 0.75 1 0.333 2 0.333 3 0-0.702-0.635-1.536-0.885-2.5-0.75zM3.25 27.75c1.067 0.733 2.067 0.65 3-0.25-1.106-0.395-2.106-0.311-3 0.25z"></path>
<path  d="M19.75 31.75c0.141-0.395 0.391-0.728 0.75-1 0.333-2.5 0.333-5 0-7.5-0.25-0.583-0.667-1-1.25-1.25-2.333-0.333-4.667-0.333-7 0-0.583 0.25-1 0.667-1.25 1.25-0.505 2.94-0.255 5.773 0.75 8.5 2.667 0 5.333 0 8 0zM13.75 22.75c5.55-0.751 7.467 1.583 5.75 7-0.25 0.25-0.5 0.5-0.75 0.75-5.827 1.672-8.077-0.412-6.75-6.25 0.492-0.657 1.076-1.157 1.75-1.5z"></path>
<path  d="M31.75 23.25c-0.405-0.484-0.905-0.901-1.5-1.25-7.417-1.917-10.167 0.833-8.25 8.25 0.349 0.595 0.766 1.095 1.25 1.5 2.5 0 5 0 7.5 0 0.167-0.5 0.5-0.833 1-1 0-2.5 0-5 0-7.5zM24.75 22.75c5.55-0.751 7.467 1.583 5.75 7-0.25 0.25-0.5 0.5-0.75 0.75-5.5 1.722-7.75-0.195-6.75-5.75 0.345-0.925 0.928-1.592 1.75-2z"></path>
<path  d="M15.25 23.25c4.355 1.201 5.022 3.451 2 6.75-4.005 0.329-5.422-1.421-4.25-5.25 0.704-0.641 1.454-1.141 2.25-1.5z"></path>
<path  d="M3.75 23.75c3.132-0.068 4.382 1.432 3.75 4.5-1.833 2-3.667 2-5.5 0-0.668-2.054-0.084-3.554 1.75-4.5zM3.75 25.25c-0.055 0.309-0.222 0.559-0.5 0.75 1 0.333 2 0.333 3 0-0.702-0.635-1.536-0.885-2.5-0.75zM3.25 27.75c1.067 0.733 2.067 0.65 3-0.25-1.106-0.395-2.106-0.311-3 0.25z"></path>
<path  d="M25.75 23.75c4.228 0.468 5.062 2.385 2.5 5.75-3.144 0.689-4.56-0.561-4.25-3.75 0.345-0.925 0.928-1.592 1.75-2z"></path>
</symbol>
<symbol id="sushi-roll" viewBox="0 0 32 32">
<path  d="M31.75 7.25c-2.316-0.747-4.649-1.497-7-2.25-3.979-0.288-7.812 0.379-11.5 2-0.317 1.729-0.65 3.479-1 5.25-4.345-0.611-8.512 0.055-12.5 2 0 5 0 10 0 15 2.426 0.686 4.759 1.519 7 2.5 1.667 0 3.333 0 5 0 2.166-0.942 4.416-1.775 6.75-2.5 0.409-5.122 0.326-10.205-0.25-15.25 1.739 0.535 3.572 0.702 5.5 0.5 1.894-0.575 3.727-1.242 5.5-2 0.417-0.417 0.833-0.833 1.25-1.25-0.189 3.303-0.272 6.637-0.25 10-2.688 0.562-5.355 1.229-8 2-0.697-0.060-1.364-0.227-2-0.5-0.994 0.394-1.161 0.978-0.5 1.75 4.18 0.246 8.18-0.504 12-2.25 0-5 0-10 0-15zM17.75 7.75c-0.355 0.452-0.855 0.619-1.5 0.5-0.085 0.661 0.082 1.244 0.5 1.75 3.032 1.612 6.199 2.029 9.5 1.25-1.132 0.941-2.465 1.608-4 2-3.064-1.048-5.898-2.465-8.5-4.25 1.181-0.866 2.514-1.282 4-1.25zM21.25 8.25c1.45-0.11 2.784 0.223 4 1-1.861 1.282-3.695 1.199-5.5-0.25 0.619-0.116 1.119-0.366 1.5-0.75zM28.75 8.25c0.802-0.094 1.468 0.156 2 0.75-0.902 0.318-1.568 0.902-2 1.75-0.785 0.405-1.619 0.571-2.5 0.5 0.64-0.716 1.474-1.049 2.5-1 0-0.667 0-1.333 0-2zM13.75 11.25c5.488 2.572 5.321 2.989-0.5 1.25 0.376-0.335 0.543-0.752 0.5-1.25zM4.75 14.75c-0.354 0.452-0.854 0.619-1.5 0.5-0.085 0.661 0.082 1.244 0.5 1.75 3.032 1.612 6.199 2.029 9.5 1.25-1.132 0.941-2.465 1.608-4 2-3.064-1.048-5.898-2.465-8.5-4.25 1.181-0.866 2.514-1.282 4-1.25zM8.25 15.25c1.45-0.11 2.784 0.223 4 1-1.861 1.282-3.695 1.199-5.5-0.25 0.619-0.116 1.119-0.366 1.5-0.75zM15.75 15.25c0.802-0.094 1.468 0.156 2 0.75-0.902 0.318-1.568 0.902-2 1.75-0.785 0.405-1.619 0.571-2.5 0.5 0.64-0.716 1.474-1.049 2.5-1 0-0.667 0-1.333 0-2zM0.75 18.25c2.523 1.84 5.356 3.007 8.5 3.5 3.111-0.449 5.861-1.616 8.25-3.5-0.189 3.303-0.272 6.637-0.25 10-2.76 0.614-5.51 1.281-8.25 2-2.54-0.819-5.123-1.485-7.75-2 0.106-3.355-0.060-6.689-0.5-10z"></path>
<path  d="M24.25 14.75c0.919 0.070 1.085 0.403 0.5 1-0.399-0.228-0.565-0.562-0.5-1z"></path>
<path  d="M26.25 14.75c1 0 2 0 3 0 0.131 0.739-0.036 1.406-0.5 2-0.667-0.667-1.333-0.667-2 0-0.464-0.594-0.631-1.261-0.5-2z"></path>
<path  d="M22.25 15.25c0.971 2.278 1.304 4.778 1 7.5-0.5 0-1 0-1.5 0-0.139-2.547 0.027-5.047 0.5-7.5z"></path>
<path  d="M20.25 16.25c0.919 0.070 1.085 0.403 0.5 1-0.399-0.228-0.565-0.562-0.5-1z"></path>
<path  d="M28.75 18.25c0.919 0.070 1.085 0.403 0.5 1-0.399-0.228-0.565-0.562-0.5-1z"></path>
<path   d="M24.25 18.75c1 0 2 0 3 0 0.131 0.739-0.036 1.406-0.5 2-0.667-0.667-1.333-0.667-2 0-0.464-0.594-0.631-1.261-0.5-2z"></path>
<path  d="M19.25 20.25c0.919 0.070 1.085 0.403 0.5 1-0.399-0.228-0.565-0.562-0.5-1z"></path>
<path   d="M1.75 21.25c1 0 2 0 3 0 0.131 0.739-0.036 1.406-0.5 2-0.667-0.667-1.333-0.667-2 0-0.464-0.594-0.631-1.261-0.5-2z"></path>
<path  d="M14.25 21.25c0.918 0.070 1.085 0.403 0.5 1-0.399-0.228-0.565-0.562-0.5-1z"></path>
<path  d="M6.75 22.25c0.918 0.070 1.085 0.403 0.5 1-0.399-0.228-0.565-0.562-0.5-1z"></path>
<path   d="M9.25 22.25c0.971 2.278 1.304 4.778 1 7.5-0.5 0-1 0-1.5 0-0.139-2.547 0.027-5.047 0.5-7.5z"></path>
<path  d="M12.25 23.25c0.918 0.070 1.085 0.403 0.5 1-0.399-0.228-0.565-0.562-0.5-1z"></path>
<path  d="M15.25 23.75c0.919 0.070 1.085 0.403 0.5 1-0.399-0.228-0.565-0.562-0.5-1z"></path>
<path   d="M4.25 24.25c1 0 2 0 3 0 0.131 0.739-0.036 1.406-0.5 2-0.667-0.667-1.333-0.667-2 0-0.464-0.594-0.631-1.261-0.5-2z"></path>
<path  d="M2.25 25.75c0.918 0.070 1.085 0.403 0.5 1-0.399-0.228-0.565-0.562-0.5-1z"></path>
<path   d="M12.25 26.25c0.852 0.518 1.686 0.518 2.5 0 0.464 0.594 0.631 1.261 0.5 2-1 0-2 0-3 0 0-0.667 0-1.333 0-2z"></path>
<path  d="M6.75 28.25c0.918 0.070 1.085 0.403 0.5 1-0.399-0.228-0.565-0.562-0.5-1z"></path>
</symbol>
<symbol id="instagram" viewBox="0 0 32 32">
<path d="M31.969 9.408c-0.075-1.7-0.35-2.869-0.744-3.882-0.406-1.075-1.032-2.038-1.851-2.838-0.8-0.813-1.769-1.444-2.832-1.844-1.019-0.394-2.182-0.669-3.882-0.744-1.713-0.081-2.257-0.1-6.601-0.1s-4.888 0.019-6.595 0.094c-1.7 0.075-2.869 0.35-3.882 0.744-1.075 0.406-2.038 1.031-2.838 1.85-0.813 0.8-1.444 1.769-1.844 2.832-0.394 1.019-0.669 2.182-0.744 3.882-0.081 1.713-0.1 2.257-0.1 6.601s0.019 4.888 0.094 6.595c0.075 1.7 0.35 2.869 0.744 3.882 0.406 1.075 1.038 2.038 1.85 2.838 0.8 0.813 1.769 1.444 2.832 1.844 1.019 0.394 2.182 0.669 3.882 0.744 1.706 0.075 2.25 0.094 6.595 0.094s4.888-0.019 6.595-0.094c1.7-0.075 2.869-0.35 3.882-0.744 2.151-0.832 3.851-2.532 4.682-4.682 0.394-1.019 0.669-2.182 0.744-3.882 0.075-1.707 0.094-2.251 0.094-6.595s-0.006-4.888-0.081-6.595zM29.087 22.473c-0.069 1.563-0.331 2.407-0.55 2.969-0.538 1.394-1.644 2.5-3.038 3.038-0.563 0.219-1.413 0.481-2.969 0.55-1.688 0.075-2.194 0.094-6.464 0.094s-4.782-0.019-6.464-0.094c-1.563-0.069-2.407-0.331-2.969-0.55-0.694-0.256-1.325-0.663-1.838-1.194-0.531-0.519-0.938-1.144-1.194-1.838-0.219-0.563-0.481-1.413-0.55-2.969-0.075-1.688-0.094-2.194-0.094-6.464s0.019-4.782 0.094-6.464c0.069-1.563 0.331-2.407 0.55-2.969 0.256-0.694 0.663-1.325 1.2-1.838 0.519-0.531 1.144-0.938 1.838-1.194 0.563-0.219 1.413-0.481 2.969-0.55 1.688-0.075 2.194-0.094 6.464-0.094 4.276 0 4.782 0.019 6.464 0.094 1.563 0.069 2.407 0.331 2.969 0.55 0.694 0.256 1.325 0.662 1.838 1.194 0.531 0.519 0.938 1.144 1.194 1.838 0.219 0.563 0.481 1.413 0.55 2.969 0.075 1.688 0.094 2.194 0.094 6.464s-0.019 4.77-0.094 6.458z"></path>
<path d="M16.059 7.783c-4.538 0-8.22 3.682-8.22 8.22s3.682 8.22 8.22 8.22c4.539 0 8.22-3.682 8.22-8.22s-3.682-8.22-8.22-8.22zM16.059 21.335c-2.944 0-5.332-2.388-5.332-5.332s2.388-5.332 5.332-5.332c2.944 0 5.332 2.388 5.332 5.332s-2.388 5.332-5.332 5.332z"></path>
<path d="M26.524 7.458c0 1.060-0.859 1.919-1.919 1.919s-1.919-0.859-1.919-1.919c0-1.060 0.859-1.919 1.919-1.919s1.919 0.859 1.919 1.919z"></path>
</symbol>
<symbol id="facebook" viewBox="0 0 32 32">
<path d="M21.329 5.313h2.921v-5.088c-0.504-0.069-2.237-0.225-4.256-0.225-4.212 0-7.097 2.649-7.097 7.519v4.481h-4.648v5.688h4.648v14.312h5.699v-14.311h4.46l0.708-5.688h-5.169v-3.919c0.001-1.644 0.444-2.769 2.735-2.769z"></path>
<symbol id="delete" viewBox="0 0 32 32">
<path fill="#2e3a59" style="fill: var(--color1, #2e3a59)" d="M23.453 6.667l-7.453 7.453-7.453-7.453-1.88 1.88 7.453 7.453-7.453 7.453 1.88 1.88 7.453-7.453 7.453 7.453 1.88-1.88-7.453-7.453 7.453-7.453-1.88-1.88z"></path>
</symbol>
</symbol>
</defs>
</svg>
